Coordinates
version=1
nRows=27
nColumns=12
inDegrees=yes

Units are S.I. units (second, meters, Newtons, ...)
Angles are in degrees

endheader
time	SC_y	SC_z	SC_x	AC_y	AC_z	AC_x	GH_y	GH_z	GH_yy	EL_x	PS_y
       0.0              -35.05           6.59          79.16          54.61         -9.863         -2.355         -63.62          72.08         -99.18          74.74           76.1
   0.04231              -35.05          6.592          79.16          54.62          -9.86         -2.355         -63.59          72.06         -99.15          74.74          76.11
   0.08463              -35.05          6.595          79.15          54.62         -9.857         -2.355         -63.57          72.05         -99.11          74.74          76.12
    0.1269              -35.05          6.599          79.14          54.62         -9.854         -2.355         -63.54          72.04         -99.07          74.75          76.14
    0.1693              -35.04          6.602          79.13          54.62         -9.851         -2.355         -63.51          72.03         -99.03          74.75          76.15
    0.2116              -35.04          6.606          79.12          54.63         -9.848         -2.355         -63.48          72.01         -98.98          74.75          76.17
    0.2539              -35.04          6.609          79.11          54.63         -9.844         -2.355         -63.45           72.0         -98.94          74.75          76.18
    0.2962              -35.03          6.614           79.1          54.63          -9.84         -2.355         -63.42          71.98         -98.89          74.75           76.2
    0.3385              -35.03          6.618          79.08          54.63         -9.836         -2.355         -63.38          71.97         -98.83          74.75          76.22
    0.3808              -35.03          6.623          79.07          54.64         -9.831         -2.355         -63.34          71.95         -98.77          74.75          76.24
    0.4231              -35.02          6.628          79.05          54.64         -9.827         -2.355          -63.3          71.93         -98.71          74.75          76.26
    0.4654              -35.02          6.633          79.04          54.64         -9.821         -2.356         -63.25          71.91         -98.64          74.76          76.29
    0.5078              -35.01          6.639          79.02          54.65         -9.816         -2.356          -63.2          71.89         -98.57          74.76          76.31
    0.5501              -35.01          6.646           79.0          54.65          -9.81         -2.356         -63.15          71.86         -98.49          74.76          76.34
    0.5924               -35.0          6.652          78.98          54.66         -9.803         -2.356         -63.09          71.84         -98.41          74.76          76.37
    0.6347               -35.0           6.66          78.96          54.66         -9.796         -2.356         -63.03          71.81         -98.31          74.76           76.4
     0.677              -34.99          6.668          78.94          54.67         -9.788         -2.356         -62.96          71.78         -98.21          74.76          76.43
    0.7193              -34.98          6.677          78.92          54.67          -9.78         -2.356         -62.88          71.74         -98.11          74.77          76.47
    0.7616              -34.97          6.687          78.89          54.68         -9.771         -2.357          -62.8          71.71         -97.99          74.77          76.51
    0.8039              -34.97          6.697          78.86          54.69         -9.761         -2.357         -62.71          71.67         -97.86          74.77          76.56
    0.8463              -34.96          6.709          78.82           54.7          -9.75         -2.357         -62.62          71.62         -97.71          74.78          76.61
    0.8886              -34.95          6.721          78.79           54.7         -9.738         -2.357         -62.51          71.57         -97.56          74.78          76.66
    0.9309              -34.94          6.736          78.75          54.71         -9.724         -2.357         -62.39          71.52         -97.38          74.78          76.72
    0.9732              -34.92          6.751           78.7          54.72         -9.709         -2.358         -62.26          71.46         -97.19          74.79          76.79
     1.016              -34.91          6.769          78.65          54.74         -9.693         -2.358         -62.11          71.39         -96.97          74.79          76.87
     1.058              -34.89          6.788           78.6          54.75         -9.674         -2.358         -61.95          71.32         -96.74           74.8          76.95
       1.1              -34.88           6.81          78.54          54.76         -9.654         -2.359         -61.77          71.24         -96.47           74.8          77.04
